{"title":"Double Di Trouble (2014) - 720p - DVDSCR-Rip - Punjabi - x264 -","uid":10942075,"size":854233140,"categoryP":"video","categoryS":"hd___movies","magnet":"?xt=urn:btih:761256b79876886ad69658e3975f03d72d42848f&amp;dn=Double+Di+Trouble+%282014%29+-+720p+-+DVDSCR-Rip+-+Punjabi+-+x264+-+&amp;tr=udp%3A%2F%2Ftracker.openbittorrent.com%3A80&amp;tr=udp%3A%2F%2Fopen.demonii.com%3A1337&amp;tr=udp%3A%2F%2Ftracker.coppersurfer.tk%3A6969&amp;tr=udp%3A%2F%2Fexodus.desync.com%3A6969","seeders":11,"leechers":1,"uploader":"inovai","files":3,"time":1409551985,"description":"Double Di Trouble (2014) - 2CD - DVDSCR-Rip - Punjabi - Xvid - AC3 - TeamTNT Exclusive\n\nCover:\n &lt;a href=&quot;\nhttp://forum.primetimeshow.in/viewtopic.php?f=7&amp;t=622&quot; rel=&quot;nofollow&quot; target=&quot;_NEW&quot;&gt;\nhttp://forum.primetimeshow.in/viewtopic.php?f=7&amp;t=622&lt;/a&gt;\n\nScreenshots:\n &lt;a href=&quot;\nhttp://img.primetimeshow.in/share.php?id=013B_5403F18E&quot; rel=&quot;nofollow&quot; target=&quot;_NEW&quot;&gt;\nhttp://img.primetimeshow.in/share.php?id=013B_5403F18E&lt;/a&gt;\n &lt;a href=&quot;\nhttp://img.primetimeshow.in/share.php?id=1242_5403F18E&quot; rel=&quot;nofollow&quot; target=&quot;_NEW&quot;&gt;\nhttp://img.primetimeshow.in/share.php?id=1242_5403F18E&lt;/a&gt;\n &lt;a href=&quot;\nhttp://img.primetimeshow.in/share.php?id=C3DB_5403F18E&quot; rel=&quot;nofollow&quot; target=&quot;_NEW&quot;&gt;\nhttp://img.primetimeshow.in/share.php?id=C3DB_5403F18E&lt;/a&gt;\n &lt;a href=&quot;\nhttp://img.primetimeshow.in/share.php?id=D9D4_5403F18E&quot; rel=&quot;nofollow&quot; target=&quot;_NEW&quot;&gt;\nhttp://img.primetimeshow.in/share.php?id=D9D4_5403F18E&lt;/a&gt;\n &lt;a href=&quot;\nhttp://img.primetimeshow.in/share.php?id=DDA0_5403F18E&quot; rel=&quot;nofollow&quot; target=&quot;_NEW&quot;&gt;\nhttp://img.primetimeshow.in/share.php?id=DDA0_5403F18E&lt;/a&gt;\n\n\nGeneral\nUnique ID : 230934024093468114204093711731565394394 (0xADBC4674AEEA9B36AB547CF5EA2DF9DA)\nComplete name : Double Di Trouble (2014) - 720p - DVDSCR-Rip - Punjabi - x264 - AC3 - Mafiaking - TeamTNT ExClusive.mkv\nFormat : Matroska\nFormat version : Version 4 / Version 2\nFile size : 810 MiB\nDuration : 1h 49mn\nOverall bit rate : 1 030 Kbps\nMovie name : Double Di Trouble (2014) - 720p - DVDSCR-Rip - Punjabi - x264 - AC3 - Mafiaking - TeamTNT ExClusive\nEncoded date : UTC 2014-08-31 14:07:46\nWriting application : mkvmerge v7.0.0 ('Where We Going') 32bit built on Jun 9 2014 15:08:34\nWriting library : libebml v1.3.0 + libmatroska v1.4.1\n\n\nVideo\nID : 1\nFormat : AVC\nFormat/Info : Advanced Video Codec\nFormat profile : &lt;a class=&quot;__cf_email__&quot; href=&quot;/cdn-cgi/l/email-protection&quot; data-cfemail=&quot;df97b6b8b79f93ecf1ee&quot;&gt;[email&amp;#160;protected]&lt;/a&gt;&lt;script cf-hash='f9e31' type=&quot;text/javascript&quot;&gt;\n/* &lt;![CDATA[ */!function(){try{var t=&quot;currentScript&quot;in document?document.currentScript:function(){for(var t=document.getElementsByTagName(&quot;script&quot;),e=t.length;e--;)if(t[e].getAttribute(&quot;cf-hash&quot;))return t[e]}();if(t&amp;&amp;t.previousSibling){var e,r,n,i,c=t.previousSibling,a=c.getAttribute(&quot;data-cfemail&quot;);if(a){for(e=&quot;&quot;,r=parseInt(a.substr(0,2),16),n=2;a.length-n;n+=2)i=parseInt(a.substr(n,2),16)^r,e+=String.fromCharCode(i);e=document.createTextNode(e),c.parentNode.replaceChild(e,c)}}}catch(u){}}();/* ]]&gt; */&lt;/script&gt;\nFormat settings, CABAC : Yes\nFormat settings, ReFrames : 4 frames\nCodec ID : V_MPEG4/ISO/AVC\nDuration : 1h 49mn\nBit rate : 900 Kbps\nWidth : 1 280 pixels\nHeight : 544 pixels\nDisplay aspect ratio : 2.35:1\nFrame rate mode : Constant\nFrame rate : 29.970 fps\nColor space : YUV\nChroma subsampling : 4:2:0\nBit depth : 8 bits\nScan type : Progressive\nBits/(Pixel*Frame) : 0.043\nStream size : 694 MiB (86%)\nTitle : Mafiaking\nWriting library : x264 core 142 r2431 ac76440\nLanguage : Panjabi\nDefault : Yes\nForced : No\n\n\nAudio\nID : 2\nFormat : AC-3\nFormat/Info : Audio Coding 3\nMode extension : CM (complete main)\nFormat settings, Endianness : Big\nCodec ID : A_AC3\nDuration : 1h 49mn\nBit rate mode : Constant\nBit rate : 128 Kbps\nChannel(s) : 2 channels\nChannel positions : Front: L R\nSampling rate : 48.0 KHz\nBit depth : 16 bits\nCompression mode : Lossy\nStream size : 101 MiB (12%)\nTitle : Mafiaking\nLanguage : Panjabi\nDefault : Yes\nForced : No\n\n\nSAMPLE WITH IN TORRENT\n\nThanks to TeamTNT and mafiaking!!\n\nSeed n Enjoy!!","torrent":{"xt":"urn:btih:761256b79876886ad69658e3975f03d72d42848f","amp;dn":"Double+Di+Trouble+%282014%29+-+720p+-+DVDSCR-Rip+-+Punjabi+-+x264+-+","amp;tr":["udp%3A%2F%2Ftracker.openbittorrent.com%3A80","udp%3A%2F%2Fopen.demonii.com%3A1337","udp%3A%2F%2Ftracker.coppersurfer.tk%3A6969","udp%3A%2F%2Fexodus.desync.com%3A6969"],"infoHash":"761256b79876886ad69658e3975f03d72d42848f","infoHashBuffer":{"type":"Buffer","data":[118,18,86,183,152,118,136,106,214,150,88,227,151,95,3,215,45,66,132,143]},"announce":[],"urlList":[]}}